<?xml version="1.0" standalone="no"?>
<!DOCTYPE svg PUBLIC "-//W3C//DTD SVG 20010904//EN"
 "http://www.w3.org/TR/2001/REC-SVG-20010904/DTD/svg10.dtd">
<svg version="1.0" xmlns="http://www.w3.org/2000/svg"
 width="300.000000pt" height="287.000000pt" viewBox="0 0 300.000000 287.000000"
 preserveAspectRatio="xMidYMid meet">
<metadata>
Created by potrace 1.10, written by Peter Selinger 2001-2011
</metadata>
<g transform="translate(0.000000,287.000000) scale(0.100000,-0.100000)"
fill="#000000" stroke="none">
<path d="M1028 2690 c-25 -60 -33 -90 -24 -90 7 0 18 11 24 25 10 21 18 25 56
25 38 0 45 -3 50 -25 4 -14 13 -25 20 -25 10 0 5 24 -22 90 -24 60 -41 90 -51
90 -11 0 -28 -31 -53 -90z m82 -17 c0 -2 -14 -3 -31 -3 -33 0 -33 3 -7 70 10
24 11 23 24 -20 7 -25 14 -46 14 -47z"/>
<path d="M1905 2763 c-4 -13 -12 -23 -19 -23 -8 0 -7 -3 1 -8 6 -4 13 -34 15
-67 3 -53 5 -60 26 -63 12 -2 22 1 22 7 0 6 -7 11 -15 11 -12 0 -15 13 -15 56
0 46 3 55 15 50 9 -3 15 0 15 9 0 8 -6 12 -14 9 -9 -4 -16 3 -19 18 l-4 23 -8
-22z"/>
<path d="M1600 2688 c0 -68 10 -88 45 -88 12 0 26 5 33 12 9 9 12 9 12 0 0 -7
6 -12 13 -12 9 0 11 20 9 75 -4 85 -22 103 -22 22 0 -55 -12 -77 -41 -77 -22
0 -31 28 -27 82 1 26 -2 43 -10 46 -9 3 -12 -14 -12 -60z"/>
<path d="M1750 2675 c0 -53 4 -75 13 -75 8 0 12 17 12 51 0 55 17 78 49 66 12
-5 16 -20 16 -62 0 -32 4 -55 10 -55 7 0 10 25 8 68 -3 65 -4 67 -31 70 -16 2
-35 -2 -43 -9 -11 -9 -14 -8 -14 5 0 9 -4 16 -10 16 -6 0 -10 -32 -10 -75z"/>
<path d="M1196 2724 c-21 -20 -20 -73 0 -102 12 -17 24 -22 46 -20 32 3 59 31
44 45 -4 4 -12 0 -17 -10 -26 -46 -79 5 -59 58 10 25 43 34 55 15 9 -15 25
-12 25 4 0 28 -69 36 -94 10z"/>
<path d="M1329 2724 c-7 -9 -14 -33 -14 -54 0 -48 19 -70 61 -70 24 0 37 6 44
21 16 28 5 36 -19 15 -11 -10 -28 -16 -38 -14 -14 3 -18 13 -18 48 0 42 2 45
28 48 15 2 27 -1 27 -7 0 -6 7 -11 15 -11 13 0 14 4 5 20 -13 25 -71 27 -91 4z"/>
<path d="M1460 2721 c-5 -11 -10 -34 -10 -51 0 -50 16 -70 55 -70 43 0 65 22
65 66 0 56 -15 74 -60 74 -29 0 -42 -5 -50 -19z m74 -7 c31 -31 12 -94 -28
-94 -25 0 -36 17 -36 55 0 23 23 55 40 55 5 0 16 -7 24 -16z"/>
<path d="M1408 2561 c-2 -8 -401 -179 -910 -391 -43 -17 -78 -36 -78 -41 0
-12 0 -12 61 15 93 42 916 386 923 386 3 0 6 -100 6 -222 0 -122 3 -219 6
-216 3 4 5 105 4 226 0 121 3 223 7 225 5 3 74 -21 153 -54 457 -189 942 -381
947 -375 8 8 22 2 -187 85 -102 41 -349 141 -550 223 -200 81 -367 148 -371
148 -4 0 -9 -4 -11 -9z"/>
<path d="M40 2051 c-8 -16 -6 -23 12 -35 12 -9 30 -16 39 -16 19 0 42 -24 32
-33 -11 -12 -71 -7 -76 6 -2 6 -8 9 -12 5 -14 -14 17 -38 49 -38 42 0 58 13
54 41 -2 18 -13 26 -42 34 -22 7 -42 17 -44 23 -5 17 46 26 63 12 17 -14 31
-8 20 9 -3 6 -24 11 -45 11 -29 0 -42 -5 -50 -19z"/>
<path d="M683 2063 c-7 -2 -13 -9 -13 -15 0 -6 7 -8 15 -4 12 4 15 -4 15 -44
0 -38 -3 -48 -14 -44 -8 3 -17 1 -21 -5 -4 -7 11 -11 45 -11 34 0 49 4 45 11
-4 6 -13 8 -21 5 -11 -4 -14 7 -14 54 0 60 -5 67 -37 53z"/>
<path d="M1150 2051 c-8 -16 -6 -23 12 -35 12 -9 30 -16 39 -16 19 0 42 -24
32 -33 -11 -11 -58 -8 -71 5 -17 17 -28 2 -12 -17 16 -20 74 -19 94 1 23 22 5
50 -39 60 -39 10 -46 23 -21 39 11 7 22 6 37 -3 22 -14 35 -10 24 7 -3 6 -24
11 -45 11 -29 0 -42 -5 -50 -19z"/>
<path d="M1782 2057 c-17 -21 -1 -30 19 -11 19 17 39 12 39 -10 0 -6 -16 -27
-35 -46 -19 -19 -35 -38 -35 -42 0 -4 23 -8 51 -8 34 0 48 4 43 11 -4 7 -20 8
-43 4 l-36 -6 38 37 c47 45 48 77 1 82 -17 2 -36 -3 -42 -11z"/>
<path d="M2230 2055 c-19 -23 -5 -43 39 -55 52 -14 56 -40 6 -40 -19 0 -35 5
-35 10 0 6 -4 10 -10 10 -16 0 -11 -27 6 -34 46 -18 94 0 94 35 0 15 -17 25
-72 43 -10 3 -18 10 -18 16 0 17 31 24 51 12 28 -17 44 -15 29 3 -16 19 -74
19 -90 0z"/>
<path d="M170 2045 c-1 0 -2 -33 -3 -73 -1 -52 1 -72 11 -72 8 0 10 8 6 25 -6
23 -4 25 25 19 27 -6 32 -3 41 20 11 31 4 75 -14 78 -10 1 -65 4 -66 3z m66
-40 c6 -24 -9 -55 -27 -55 -14 0 -28 36 -22 58 8 31 41 28 49 -3z"/>
<path d="M293 2043 c-25 -10 -12 -22 17 -16 17 3 30 1 30 -4 0 -6 -13 -13 -29
-16 -30 -6 -44 -27 -35 -52 7 -18 45 -20 62 -3 9 9 12 9 12 0 0 -7 8 -12 17
-12 13 0 14 3 5 12 -7 7 -12 26 -12 43 0 46 -26 65 -67 48z m47 -62 c0 -5 -7
-14 -15 -21 -18 -15 -42 1 -31 19 8 13 46 15 46 2z"/>
<path d="M394 2025 c-22 -34 -7 -79 28 -83 13 -2 31 4 38 12 15 19 0 21 -19 4
-10 -11 -15 -9 -27 6 -16 23 -17 35 -4 56 8 13 13 13 31 2 25 -16 37 -8 19 13
-19 22 -47 18 -66 -10z"/>
<path d="M494 2025 c-16 -25 -12 -63 10 -77 19 -13 53 -9 66 7 15 18 7 19 -21
4 -15 -7 -24 -7 -35 2 -24 20 -16 29 26 29 44 0 52 16 24 44 -23 23 -51 20
-70 -9z m61 -5 c4 -6 -7 -10 -25 -10 -18 0 -29 4 -25 10 3 6 15 10 25 10 10 0
22 -4 25 -10z"/>
<path d="M1278 1973 c-2 -56 0 -73 11 -73 9 0 11 8 7 25 -6 23 -4 24 23 19 23
-5 32 -2 40 14 26 48 7 86 -43 87 l-35 2 -3 -74z m70 26 c3 -27 -20 -55 -38
-44 -11 7 -14 58 -3 69 14 14 38 0 41 -25z"/>
<path d="M1403 2043 c-25 -10 -12 -22 17 -16 17 3 30 1 30 -4 0 -6 -13 -13
-29 -16 -30 -6 -44 -27 -35 -52 7 -17 49 -20 59 -5 4 6 -4 9 -17 7 -30 -3 -31
27 -2 31 16 2 23 -4 28 -22 4 -15 14 -26 23 -26 13 0 14 3 5 12 -7 7 -12 26
-12 43 0 46 -26 65 -67 48z"/>
<path d="M1513 2038 c-21 -27 -23 -51 -8 -74 18 -28 60 -32 69 -8 9 23 1 28
-14 9 -7 -8 -16 -15 -21 -15 -14 0 -30 40 -24 60 7 22 41 27 48 8 2 -7 8 -10
12 -6 11 11 -14 38 -35 38 -10 0 -22 -6 -27 -12z"/>
<path d="M1613 2038 c-21 -27 -23 -51 -8 -74 18 -28 56 -32 76 -7 15 17 14 17
-38 -4 -6 -2 -16 5 -23 16 -10 20 -8 21 30 21 44 0 53 16 24 44 -19 19 -48 21
-61 4z m52 -18 c4 -6 -7 -10 -25 -10 -18 0 -29 4 -25 10 3 6 15 10 25 10 10 0
22 -4 25 -10z"/>
<path d="M2350 1973 c0 -42 4 -73 10 -73 6 0 10 11 10 24 0 20 4 22 26 18 31
-6 44 10 44 54 0 38 -15 51 -57 51 l-33 0 0 -74z m70 23 c0 -19 -5 -38 -10
-41 -16 -10 -40 14 -40 40 0 26 8 35 32 35 14 0 18 -8 18 -34z"/>
<path d="M2474 2034 c-18 -15 -18 -15 9 -9 42 9 55 -6 16 -19 -27 -9 -34 -16
-34 -36 0 -20 6 -26 28 -28 15 -2 27 2 27 8 0 6 -8 10 -17 8 -10 -2 -19 4 -21
15 -3 13 3 17 23 17 15 0 25 -5 24 -12 -3 -26 1 -38 14 -38 18 0 9 82 -11 98
-21 16 -34 15 -58 -4z"/>
<path d="M2586 2034 c-19 -18 -21 -65 -4 -82 16 -16 53 -15 67 1 16 20 2 29
-16 11 -20 -19 -43 -1 -43 33 0 28 24 40 45 23 9 -7 19 -10 23 -6 8 9 -26 36
-44 36 -7 0 -20 -7 -28 -16z"/>
<path d="M2686 2034 c-19 -18 -21 -65 -4 -82 15 -15 64 -16 73 -1 11 17 -3 23
-20 9 -12 -10 -18 -10 -30 0 -25 21 -17 30 25 30 44 0 47 5 24 38 -18 26 -46
28 -68 6z m59 -14 c4 -6 -7 -10 -25 -10 -18 0 -29 4 -25 10 3 6 15 10 25 10
10 0 22 -4 25 -10z"/>
<path d="M2850 1993 c0 -63 18 -72 22 -10 2 34 7 42 23 42 16 0 21 -8 23 -42
4 -56 22 -55 22 1 0 50 -12 63 -57 63 l-33 0 0 -54z"/>
<path d="M594 1992 c6 -10 42 -9 52 1 4 4 -7 7 -25 7 -18 0 -30 -4 -27 -8z"/>
<path d="M1704 1992 c6 -10 42 -9 52 1 4 4 -7 7 -25 7 -18 0 -30 -4 -27 -8z"/>
<path d="M2780 1991 c0 -5 11 -8 25 -8 14 0 25 3 25 8 0 5 -11 9 -25 9 -14 0
-25 -4 -25 -9z"/>
<path d="M1438 1665 c-2 -118 0 -215 5 -215 4 0 7 92 7 204 l0 203 556 -214
c306 -117 562 -212 568 -210 6 3 -2 10 -19 16 -16 7 -271 105 -565 218 -294
113 -538 207 -542 210 -4 2 -9 -93 -10 -212z"/>
<path d="M1010 1684 c-471 -196 -448 -186 -434 -191 12 -4 831 332 849 348 26
24 -52 -5 -415 -157z"/>
<path d="M60 1390 c0 -5 10 -10 23 -10 21 0 22 -3 19 -60 -3 -45 0 -60 10 -60
10 0 12 15 10 60 -4 59 -3 60 22 60 14 0 26 5 26 10 0 6 -25 10 -55 10 -30 0
-55 -4 -55 -10z"/>
<path d="M639 1380 c-13 -10 -19 -19 -13 -20 5 0 15 5 22 12 9 9 12 0 12 -40
0 -45 -3 -52 -20 -52 -11 0 -20 -4 -20 -10 0 -5 20 -10 45 -10 25 0 45 5 45
10 0 6 -8 10 -17 10 -16 0 -18 8 -15 60 4 65 -2 71 -39 40z"/>
<path d="M1165 1390 c-4 -6 5 -10 19 -10 25 0 26 -2 26 -60 0 -33 4 -60 10
-60 6 0 10 27 10 60 0 57 1 60 25 60 14 0 25 5 25 10 0 6 -24 10 -54 10 -30 0
-58 -4 -61 -10z"/>
<path d="M1744 1386 c-25 -19 -12 -31 15 -14 16 10 23 10 32 1 10 -10 3 -23
-29 -57 -23 -25 -42 -48 -42 -51 0 -3 23 -5 50 -5 28 0 50 5 50 10 0 6 -17 10
-37 10 l-37 0 37 34 c41 38 44 47 21 70 -19 20 -35 20 -60 2z"/>
<path d="M2270 1390 c0 -5 11 -10 25 -10 24 0 25 -3 25 -60 0 -33 4 -60 10
-60 6 0 10 27 10 60 0 57 1 60 25 60 14 0 25 5 25 10 0 6 -27 10 -60 10 -33 0
-60 -4 -60 -10z"/>
<path d="M176 1354 c-43 -42 2 -110 58 -88 27 10 18 22 -16 20 -22 -1 -33 4
-35 15 -3 12 4 14 30 11 41 -5 51 7 31 36 -18 26 -46 28 -68 6z m59 -14 c4 -6
-7 -10 -25 -10 -18 0 -29 4 -25 10 3 6 15 10 25 10 10 0 22 -4 25 -10z"/>
<path d="M287 1363 c-15 -15 -5 -22 23 -16 17 3 30 1 30 -4 0 -6 -14 -13 -30
-17 -37 -7 -49 -32 -27 -54 13 -13 21 -13 42 -4 15 7 25 8 25 2 0 -6 8 -10 17
-10 13 0 14 3 5 12 -7 7 -12 26 -12 43 0 17 -5 36 -12 43 -13 13 -50 16 -61 5z
m50 -68 c-8 -19 -47 -20 -47 -1 0 8 10 16 23 18 28 5 31 3 24 -17z"/>
<path d="M388 1313 c5 -64 22 -71 22 -8 0 38 3 45 20 45 17 0 20 -7 20 -45 0
-25 5 -45 10 -45 6 0 10 20 10 45 0 38 3 45 20 45 17 0 20 -7 20 -45 0 -25 5
-45 10 -45 11 0 14 69 4 94 -7 18 -39 22 -49 6 -4 -7 -11 -7 -18 -2 -7 5 -25
9 -42 9 -30 0 -30 0 -27 -54z"/>
<path d="M1279 1346 c-24 -51 11 -97 61 -81 31 10 24 23 -12 21 -22 -1 -33 4
-35 15 -3 12 4 14 30 11 41 -5 51 7 31 36 -21 30 -61 29 -75 -2z m66 -6 c4 -6
-7 -10 -24 -10 -17 0 -31 5 -31 10 0 6 11 10 24 10 14 0 28 -4 31 -10z"/>
<path d="M1397 1363 c-15 -15 -5 -22 23 -16 19 3 30 1 30 -6 0 -6 -8 -11 -18
-11 -10 0 -27 -6 -38 -14 -30 -23 -7 -51 43 -52 l41 0 -6 40 c-2 23 -9 47 -15
54 -10 13 -49 17 -60 5z m50 -68 c-8 -19 -47 -20 -47 -1 0 8 10 16 23 18 28 5
31 3 24 -17z"/>
<path d="M1498 1313 c5 -64 22 -71 22 -8 0 38 3 45 20 45 17 0 20 -7 20 -45 0
-25 5 -45 10 -45 6 0 10 20 10 45 0 38 3 45 20 45 17 0 20 -7 20 -45 0 -25 5
-45 10 -45 6 0 10 20 10 44 0 52 -21 76 -50 58 -11 -6 -22 -8 -25 -3 -3 5 -20
9 -37 8 l-33 -1 3 -53z"/>
<path d="M2392 1358 c-17 -17 -15 -64 4 -82 19 -20 48 -21 63 -2 10 12 6 14
-21 13 -22 -2 -33 3 -35 14 -3 12 4 14 30 11 41 -5 51 7 31 36 -17 24 -53 29
-72 10z m63 -18 c4 -6 -7 -10 -24 -10 -17 0 -31 5 -31 10 0 6 11 10 24 10 14
0 28 -4 31 -10z"/>
<path d="M2499 1354 c-11 -14 -9 -15 24 -9 25 5 37 4 37 -4 0 -6 -10 -11 -23
-11 -28 0 -47 -17 -47 -42 0 -24 27 -34 51 -20 11 7 20 8 24 2 3 -6 10 -10 15
-10 11 0 0 81 -13 98 -13 17 -52 15 -68 -4z m58 -59 c-8 -19 -47 -20 -47 -1 0
8 10 16 23 18 28 5 31 3 24 -17z"/>
<path d="M2608 1313 c2 -29 8 -53 14 -53 5 0 6 9 3 21 -11 33 3 69 25 69 17 0
20 -7 20 -45 0 -25 5 -45 10 -45 6 0 10 20 10 45 0 38 3 45 20 45 17 0 20 -7
20 -45 0 -25 5 -45 10 -45 6 0 10 20 10 44 0 52 -21 76 -50 58 -11 -6 -22 -8
-25 -3 -3 5 -20 9 -37 8 l-33 -1 3 -53z"/>
<path d="M2840 1314 c0 -30 5 -54 10 -54 6 0 10 21 10 46 0 41 2 45 23 42 19
-3 22 -8 20 -45 -1 -28 2 -43 10 -43 9 0 11 15 7 53 l-5 52 -37 2 -38 1 0 -54z"/>
<path d="M550 1320 c0 -5 11 -10 25 -10 14 0 25 5 25 10 0 6 -11 10 -25 10
-14 0 -25 -4 -25 -10z"/>
<path d="M1660 1320 c0 -5 11 -10 25 -10 14 0 25 5 25 10 0 6 -11 10 -25 10
-14 0 -25 -4 -25 -10z"/>
<path d="M2770 1320 c0 -5 11 -10 25 -10 14 0 25 5 25 10 0 6 -11 10 -25 10
-14 0 -25 -4 -25 -10z"/>
<path d="M1378 1160 c-312 -182 -617 -368 -612 -372 3 -3 94 47 202 112 108
64 254 151 323 192 l126 75 7 -105 c3 -58 6 -145 6 -194 0 -52 4 -88 10 -88 9
0 4 336 -6 368 -2 6 -2 12 0 12 2 0 173 -86 380 -191 207 -105 376 -186 376
-180 0 6 -173 97 -385 204 l-385 192 -42 -25z"/>
<path d="M967 756 c-9 -7 -17 -17 -17 -21 0 -4 7 -2 15 5 13 11 15 6 15 -33 0
-37 -3 -45 -15 -41 -8 4 -15 1 -15 -5 0 -6 16 -11 35 -11 19 0 35 5 35 10 0 6
-6 9 -12 8 -9 -2 -13 12 -14 45 -1 56 -3 59 -27 43z"/>
<path d="M1652 758 c-7 -7 -12 -17 -12 -22 0 -6 5 -5 12 2 16 16 38 15 38 -1
0 -8 -9 -22 -21 -33 -11 -10 -25 -27 -30 -36 -9 -16 -5 -18 31 -18 23 0 40 5
40 11 0 7 -10 9 -25 5 -14 -4 -25 -3 -25 2 0 5 11 19 25 32 30 28 32 46 6 60
-24 13 -24 13 -39 -2z"/>
<path d="M602 698 c3 -41 5 -43 36 -45 32 -1 32 -1 32 43 0 53 -18 59 -22 7
-4 -52 -28 -56 -28 -4 0 23 -5 41 -11 41 -6 0 -9 -17 -7 -42z"/>
<path d="M691 726 c-9 -11 -6 -18 16 -34 31 -23 24 -43 -9 -23 -17 10 -19 10
-16 -1 3 -7 18 -13 34 -13 39 0 46 31 9 45 -14 5 -23 15 -20 20 5 8 11 8 20 0
8 -7 16 -7 19 -2 3 6 -1 13 -10 16 -23 9 -30 8 -43 -8z"/>
<path d="M772 728 c-15 -15 -15 -51 0 -66 15 -15 45 -16 54 -1 4 7 0 9 -13 5
-12 -4 -25 -1 -33 9 -11 13 -8 15 19 15 19 0 31 5 31 13 0 16 -20 37 -35 37
-6 0 -16 -5 -23 -12z m34 -26 c-22 -5 -30 3 -21 18 5 8 11 7 22 -2 15 -12 14
-13 -1 -16z"/>
<path d="M850 693 c0 -24 4 -43 8 -43 5 0 7 13 4 30 -3 21 0 32 12 36 23 9 20
23 -4 21 -17 -1 -20 -8 -20 -44z"/>
<path d="M1292 698 c3 -41 5 -43 36 -45 32 -1 32 -1 32 43 0 24 -4 44 -10 44
-5 0 -10 -15 -10 -34 0 -33 -14 -55 -28 -42 -3 4 -5 22 -4 41 2 20 -2 35 -8
35 -7 0 -10 -17 -8 -42z"/>
<path d="M1377 734 c-15 -15 -6 -35 20 -45 19 -7 23 -13 15 -21 -8 -8 -16 -7
-28 3 -15 12 -17 12 -12 -1 2 -8 15 -17 28 -18 41 -6 49 41 8 51 -11 3 -17 10
-13 17 5 8 11 7 23 -2 13 -11 14 -11 10 2 -5 16 -39 25 -51 14z"/>
<path d="M1462 731 c-8 -5 -12 -22 -10 -42 2 -27 8 -35 27 -37 13 -2 28 2 35
9 8 9 6 11 -11 6 -13 -3 -27 1 -34 9 -9 11 -6 14 20 14 32 0 41 16 19 38 -14
14 -28 15 -46 3z m38 -22 c0 -5 -10 -9 -21 -9 -18 0 -19 2 -9 15 12 15 30 12
30 -6z"/>
<path d="M1538 693 c-2 -24 0 -43 4 -43 5 0 8 16 8 35 0 24 5 35 15 35 8 0 15
4 15 9 0 6 -9 9 -19 8 -15 -1 -20 -10 -23 -44z"/>
<path d="M1982 698 c3 -40 5 -43 33 -45 29 -1 30 0 30 43 0 54 -13 59 -17 7
-2 -26 -8 -38 -18 -38 -11 0 -15 10 -14 38 1 20 -3 37 -8 37 -5 0 -8 -19 -6
-42z"/>
<path d="M2067 734 c-15 -15 -6 -35 20 -45 19 -7 23 -13 15 -21 -8 -8 -16 -7
-28 3 -15 12 -17 12 -12 -1 6 -20 42 -24 57 -6 10 12 8 18 -13 31 -14 10 -23
21 -20 27 3 5 12 4 22 -4 13 -11 14 -11 10 2 -5 16 -39 25 -51 14z"/>
<path d="M2152 731 c-8 -5 -12 -22 -10 -42 2 -27 8 -35 27 -37 13 -2 28 1 35
8 8 8 4 11 -18 8 -17 -2 -31 2 -33 10 -3 8 6 12 26 12 32 0 41 16 19 38 -14
14 -28 15 -46 3z m38 -22 c0 -5 -9 -9 -20 -9 -22 0 -27 16 -7 23 15 5 27 -1
27 -14z"/>
<path d="M2232 690 c1 -43 2 -44 5 -7 3 24 9 37 19 37 8 0 14 4 14 9 0 6 -9 9
-20 8 -17 -1 -20 -8 -18 -47z"/>
<path d="M2331 690 c2 -43 2 -44 8 -10 9 50 41 55 41 6 0 -20 5 -36 10 -36 15
0 12 66 -3 78 -7 6 -23 10 -35 9 -19 -1 -22 -7 -21 -47z"/>
<path d="M890 690 c0 -5 11 -10 25 -10 14 0 25 5 25 10 0 6 -11 10 -25 10 -14
0 -25 -4 -25 -10z"/>
<path d="M1580 690 c0 -5 9 -10 20 -10 11 0 20 5 20 10 0 6 -9 10 -20 10 -11
0 -20 -4 -20 -10z"/>
<path d="M2270 690 c0 -5 9 -10 20 -10 11 0 20 5 20 10 0 6 -9 10 -20 10 -11
0 -20 -4 -20 -10z"/>
<path d="M1385 564 c-11 -12 -123 -86 -250 -164 -256 -159 -240 -148 -233
-155 3 -3 116 65 252 150 l247 155 -2 -161 c0 -88 2 -163 5 -166 3 -4 6 68 6
159 l0 165 273 -117 c415 -179 419 -181 415 -169 -2 6 -154 75 -338 154 -183
79 -339 149 -344 157 -9 12 -14 11 -31 -8z"/>
<path d="M800 189 c0 -5 5 -7 10 -4 6 3 10 8 10 11 0 2 -4 4 -10 4 -5 0 -10
-5 -10 -11z"/>
<path d="M910 140 c0 -33 4 -60 10 -60 6 0 10 27 10 60 0 33 -4 60 -10 60 -6
0 -10 -27 -10 -60z"/>
<path d="M1470 190 c0 -5 5 -10 10 -10 6 0 10 5 10 10 0 6 -4 10 -10 10 -5 0
-10 -4 -10 -10z"/>
<path d="M1580 140 c0 -33 4 -60 10 -60 6 0 10 27 10 60 0 33 -4 60 -10 60 -6
0 -10 -27 -10 -60z"/>
<path d="M2140 190 c0 -5 5 -10 10 -10 6 0 10 5 10 10 0 6 -4 10 -10 10 -5 0
-10 -4 -10 -10z"/>
<path d="M2250 140 c0 -33 4 -60 10 -60 6 0 10 27 10 60 0 33 -4 60 -10 60 -6
0 -10 -27 -10 -60z"/>
<path d="M758 180 c-2 -6 -13 -12 -26 -13 -19 -1 -22 -6 -21 -47 2 -34 3 -38
6 -15 10 63 43 74 43 15 0 -31 4 -40 17 -40 13 0 14 3 5 12 -15 15 -15 51 0
66 9 9 9 12 -1 12 -7 0 -9 5 -6 10 3 6 2 10 -4 10 -5 0 -11 -5 -13 -10z"/>
<path d="M1093 183 c-7 -2 -13 -9 -13 -14 0 -4 7 -6 15 -3 12 5 15 -2 15 -34
0 -30 -4 -42 -17 -45 -10 -3 0 -5 22 -5 22 0 32 2 22 5 -16 4 -18 13 -15 54 3
48 -1 54 -29 42z"/>
<path d="M1428 180 c-2 -6 -13 -12 -26 -13 -19 -1 -22 -7 -22 -44 0 -24 4 -43
8 -43 5 0 7 13 4 29 -3 22 1 32 17 40 20 11 21 9 21 -29 0 -25 5 -40 13 -40
10 0 13 37 8 103 -1 11 -19 9 -23 -3z"/>
<path d="M1755 180 c-4 -6 -4 -14 0 -18 4 -4 10 -1 12 6 3 6 11 12 19 12 22 0
16 -34 -11 -60 -34 -32 -31 -40 13 -39 31 2 33 3 8 6 l-28 5 27 28 c33 34 30
64 -7 68 -14 2 -29 -2 -33 -8z"/>
<path d="M2105 177 c-9 -22 -2 -90 10 -94 6 -2 10 18 9 47 -1 52 -9 74 -19 47z"/>
<path d="M633 163 c-24 -9 -13 -23 12 -17 15 4 25 2 25 -5 0 -6 -11 -11 -25
-11 -20 0 -25 -5 -25 -24 0 -22 4 -25 38 -23 36 1 38 2 34 32 -7 48 -25 62
-59 48z m37 -52 c0 -14 -18 -23 -30 -16 -6 4 -8 11 -5 16 8 12 35 12 35 0z"/>
<path d="M800 127 c0 -26 3 -47 8 -47 9 0 8 78 -2 87 -3 3 -6 -15 -6 -40z"/>
<path d="M842 158 c-13 -13 -15 -37 -6 -62 7 -18 49 -22 59 -5 10 16 -3 23
-18 11 -17 -15 -27 -6 -27 26 0 21 3 23 27 17 23 -5 25 -4 14 9 -16 19 -33 20
-49 4z"/>
<path d="M952 158 c-13 -13 -15 -37 -6 -62 7 -18 49 -22 59 -6 4 6 -3 9 -16 7
-12 -1 -24 4 -26 11 -3 7 5 12 21 12 19 0 26 5 26 19 0 28 -37 40 -58 19z m43
-18 c3 -5 -3 -10 -14 -10 -12 0 -21 5 -21 10 0 6 6 10 14 10 8 0 18 -4 21 -10z"/>
<path d="M1303 163 c-24 -9 -13 -23 12 -17 15 4 25 2 25 -4 0 -6 -10 -12 -22
-14 -15 -2 -23 -10 -23 -23 0 -16 7 -20 36 -21 34 -1 35 0 31 30 -7 49 -25 63
-59 49z m37 -52 c0 -14 -18 -23 -30 -16 -6 4 -8 11 -5 16 8 12 35 12 35 0z"/>
<path d="M1470 125 c0 -25 5 -45 10 -45 6 0 10 20 10 45 0 25 -4 45 -10 45 -5
0 -10 -20 -10 -45z"/>
<path d="M1508 144 c-14 -29 -2 -57 27 -62 20 -4 42 14 31 25 -4 4 -11 1 -15
-6 -13 -20 -31 -4 -31 26 0 22 3 24 27 18 23 -5 25 -4 14 9 -20 23 -40 19 -53
-10z"/>
<path d="M1618 145 c-19 -42 25 -86 55 -56 9 9 5 11 -12 9 -13 -2 -26 3 -28
10 -3 8 6 12 26 12 27 0 30 2 22 23 -12 33 -48 34 -63 2z m52 -5 c0 -5 -9 -10
-20 -10 -11 0 -20 5 -20 10 0 6 9 10 20 10 11 0 20 -4 20 -10z"/>
<path d="M1977 163 c-13 -13 -7 -21 13 -16 11 3 20 1 20 -5 0 -6 -10 -12 -22
-14 -15 -2 -23 -10 -23 -23 0 -16 7 -20 35 -21 35 -2 36 -2 32 35 -5 43 -34
66 -55 44z m33 -58 c-7 -8 -16 -15 -21 -15 -5 0 -9 7 -9 15 0 9 9 15 21 15 18
0 19 -2 9 -15z"/>
<path d="M2050 123 c0 -24 5 -43 10 -43 6 0 10 16 10 35 0 19 5 35 10 35 6 0
10 4 10 9 0 6 -9 9 -20 8 -17 -1 -20 -8 -20 -44z"/>
<path d="M2140 125 c0 -25 5 -45 10 -45 6 0 10 20 10 45 0 25 -4 45 -10 45 -5
0 -10 -20 -10 -45z"/>
<path d="M2186 154 c-19 -19 -20 -35 -3 -58 15 -21 48 -18 55 4 4 13 3 13 -11
2 -21 -18 -37 -7 -37 25 0 22 3 24 25 19 27 -7 35 8 9 18 -21 8 -20 8 -38 -10z"/>
<path d="M2304 162 c-18 -12 -24 -42 -14 -63 11 -20 54 -26 65 -8 4 6 -3 9
-21 7 -15 -2 -29 3 -31 10 -3 8 6 12 26 12 34 0 36 2 21 31 -11 20 -27 24 -46
11z m36 -22 c0 -5 -9 -10 -20 -10 -11 0 -20 5 -20 10 0 6 9 10 20 10 11 0 20
-4 20 -10z"/>
<path d="M2420 124 c0 -24 5 -44 10 -44 6 0 10 16 10 35 0 24 5 35 15 35 10 0
15 -11 15 -35 0 -19 5 -35 11 -35 6 0 9 17 7 43 -3 40 -5 42 -35 44 -33 1 -33
1 -33 -43z"/>
<path d="M1025 120 c-4 -6 5 -10 19 -10 14 0 26 5 26 10 0 6 -9 10 -19 10 -11
0 -23 -4 -26 -10z"/>
<path d="M1700 120 c0 -5 9 -10 20 -10 11 0 20 5 20 10 0 6 -9 10 -20 10 -11
0 -20 -4 -20 -10z"/>
<path d="M2370 120 c0 -5 9 -10 20 -10 11 0 20 5 20 10 0 6 -9 10 -20 10 -11
0 -20 -4 -20 -10z"/>
</g>
</svg>
