<?xml version="1.0" standalone="no"?>
<!DOCTYPE svg PUBLIC "-//W3C//DTD SVG 20010904//EN"
 "http://www.w3.org/TR/2001/REC-SVG-20010904/DTD/svg10.dtd">
<svg version="1.0" xmlns="http://www.w3.org/2000/svg"
 width="532.000000pt" height="527.000000pt" viewBox="0 0 532.000000 527.000000"
 preserveAspectRatio="xMidYMid meet">
<metadata>
Created by potrace 1.13, written by Peter Selinger 2001-2015
</metadata>
<g transform="translate(0.000000,527.000000) scale(0.100000,-0.100000)"
fill="#000000" stroke="none">
<path d="M0 2620 l0 -2620 2660 0 2660 0 -2 2036 -3 2037 -80 23 c-44 13 -88
24 -98 24 -10 0 -82 18 -161 40 -78 22 -164 43 -192 46 -27 3 -131 26 -232 50
-100 24 -192 44 -205 44 -12 0 -96 18 -187 41 -91 22 -192 44 -225 49 -33 5
-136 27 -230 48 -93 22 -206 47 -250 56 -44 8 -127 27 -185 41 -58 14 -132 30
-165 35 -33 5 -134 27 -225 50 -91 22 -175 40 -188 40 -13 0 -106 20 -208 45
-101 25 -194 45 -207 45 -12 0 -96 18 -187 41 -91 22 -192 44 -225 49 -33 5
-136 27 -230 48 -93 22 -206 47 -250 56 -44 8 -127 27 -185 41 -58 14 -132 30
-165 35 -33 5 -134 27 -225 50 -91 22 -175 40 -188 40 -13 0 -106 20 -208 45
-101 25 -196 45 -212 45 -15 0 -61 9 -102 20 -41 11 -81 20 -87 20 -10 0 -13
-531 -13 -2620z m1553 1178 c4 -83 7 -677 7 -1320 l0 -1170 -279 4 c-154 2
-283 6 -287 11 -8 7 -20 2606 -13 2608 2 1 105 5 229 9 124 3 250 7 281 8 l56
2 6 -152z m1033 -354 l200 -6 32 -47 c18 -25 45 -62 62 -81 16 -19 30 -38 30
-43 0 -4 19 -31 43 -61 23 -29 60 -79 82 -110 22 -31 42 -56 45 -56 3 0 11
-12 17 -27 7 -16 29 -46 48 -67 19 -22 35 -45 35 -52 0 -6 7 -17 16 -25 9 -7
43 -51 76 -98 34 -48 67 -90 74 -94 8 -4 14 -14 14 -22 0 -7 20 -37 45 -66 25
-29 45 -57 45 -63 0 -5 11 -21 24 -35 13 -15 45 -57 72 -96 26 -38 56 -79 66
-89 10 -11 18 -25 18 -32 0 -6 11 -22 23 -35 13 -13 48 -60 77 -104 29 -44 56
-82 60 -85 4 -3 14 -18 23 -35 8 -16 29 -46 46 -65 17 -19 34 -44 37 -54 4
-11 15 -29 26 -40 11 -12 27 -33 36 -48 9 -16 19 -28 23 -28 4 0 10 -10 13
-22 3 -13 20 -39 37 -58 17 -19 38 -48 46 -65 9 -16 19 -32 23 -35 4 -3 32
-42 63 -87 31 -46 65 -93 77 -105 11 -12 20 -27 20 -34 0 -7 13 -28 30 -46 17
-18 30 -36 30 -40 0 -5 -151 -7 -336 -6 -325 3 -337 4 -348 23 -6 11 -14 22
-17 25 -11 9 -74 94 -96 130 -12 20 -33 46 -47 59 -14 14 -26 30 -26 38 0 7
-9 22 -20 33 -23 23 -139 180 -157 214 -6 12 -30 41 -52 66 -23 25 -41 50 -41
57 0 7 -8 20 -19 30 -19 18 -137 179 -157 215 -6 10 -22 31 -35 46 -13 14 -35
43 -49 63 -48 71 -138 194 -164 224 -14 17 -26 35 -26 41 0 6 -9 19 -20 29
-10 9 -40 48 -65 86 -26 37 -56 78 -68 91 -12 13 -29 37 -37 53 -13 25 -15
-50 -18 -739 l-2 -766 -288 2 -287 3 -3 1065 c-1 586 0 1070 2 1077 5 11 156
11 642 -3z m1771 -37 c2 -2 2 -352 1 -777 l-3 -772 -34 48 c-19 27 -38 51 -42
54 -3 3 -13 19 -22 35 -8 17 -26 43 -40 59 -14 16 -31 41 -39 55 -7 14 -15 28
-18 31 -3 3 -18 23 -35 45 -16 22 -32 42 -36 45 -3 3 -9 14 -13 25 -3 11 -20
36 -37 55 -18 19 -38 49 -45 67 -7 17 -17 33 -22 35 -5 1 -35 42 -67 91 -32
48 -61 87 -65 87 -4 0 -17 20 -29 45 -20 43 -21 59 -21 416 l0 372 282 -6
c154 -4 283 -8 285 -10z"/>
</g>
</svg>
