<?xml version="1.0" standalone="no"?>
<!DOCTYPE svg PUBLIC "-//W3C//DTD SVG 20010904//EN"
 "http://www.w3.org/TR/2001/REC-SVG-20010904/DTD/svg10.dtd">
<svg version="1.0" xmlns="http://www.w3.org/2000/svg"
 width="300.000000pt" height="154.000000pt" viewBox="0 0 300.000000 154.000000"
 preserveAspectRatio="xMidYMid meet">
<metadata>
Created by potrace 1.10, written by Peter Selinger 2001-2011
</metadata>
<g transform="translate(0.000000,154.000000) scale(0.100000,-0.100000)"
fill="#000000" stroke="none">
<path d="M776 1309 c-93 -120 -172 -222 -177 -225 -7 -4 -415 135 -532 181 -9
4 57 -101 147 -234 l164 -240 -92 -118 c-180 -232 -257 -333 -251 -333 5 0
506 146 531 155 7 2 83 -102 170 -230 88 -129 161 -234 165 -235 3 0 6 80 8
177 2 98 4 192 6 208 2 17 6 127 10 245 3 118 10 360 16 538 6 178 9 325 7
327 -2 2 -80 -95 -172 -216z m134 132 c-27 -70 -115 -242 -161 -319 -22 -36
-38 -70 -36 -75 4 -13 77 111 129 217 22 44 36 68 32 51 -26 -118 -54 -265
-54 -287 0 -16 -4 -28 -9 -28 -10 0 -66 22 -128 51 -24 10 -48 19 -54 19 -11
0 15 40 53 80 12 13 22 27 21 30 0 3 3 4 8 2 6 -1 9 6 7 15 -2 11 2 17 10 15
8 -1 11 2 7 8 -3 5 6 22 22 37 15 16 25 28 23 28 -3 0 20 34 51 75 30 41 63
87 73 103 27 40 28 33 6 -22z m26 -8 c-3 -21 -8 -132 -12 -248 -3 -115 -7
-211 -8 -212 -1 -1 -21 3 -45 9 l-42 11 6 51 c4 28 16 96 28 151 11 55 21 114
21 132 1 17 4 29 7 27 3 -2 14 24 24 56 21 68 29 77 21 23z m-578 -289 c112
-40 205 -74 207 -76 2 -2 -6 -17 -19 -32 l-22 -29 -65 29 c-35 16 -68 32 -74
37 -32 27 -209 122 -200 108 11 -20 122 -90 229 -147 l106 -56 -30 -42 -31
-42 -165 164 c-90 91 -166 163 -169 160 -3 -2 65 -76 150 -164 85 -87 155
-161 155 -164 0 -9 -50 -63 -54 -59 -7 8 -67 95 -103 149 -19 30 -64 94 -100
143 -60 82 -72 117 -34 101 9 -4 107 -40 219 -80z m293 -95 c19 -7 37 -15 42
-18 8 -8 -50 -91 -63 -91 -4 0 -28 9 -54 20 l-46 21 32 39 c34 44 39 45 89 29z
m154 -69 c-2 -4 -5 -25 -6 -48 -2 -25 -7 -41 -13 -38 -6 3 -35 13 -63 22 -29
10 -53 22 -53 27 0 5 9 24 20 42 l20 33 50 -16 c27 -8 47 -18 45 -22z m113
-85 c3 -48 1 -57 -12 -52 -8 3 -34 11 -57 17 l-42 11 7 46 c3 25 6 51 6 58 0
10 12 9 48 -5 l47 -18 3 -57z m-337 39 c34 -17 36 -13 -29 -86 l-24 -26 -28
31 -28 31 27 33 c29 37 40 39 82 17z m167 -49 l53 -17 -3 -86 -3 -85 -75 -24
c-41 -12 -79 -23 -85 -23 -15 0 -97 130 -91 145 2 7 26 41 52 74 45 58 47 60
73 47 14 -7 50 -21 79 -31z m-242 -72 c15 -21 14 -25 -21 -68 l-37 -45 -29 45
c-16 25 -29 48 -29 51 0 3 14 23 32 45 l32 40 19 -23 c10 -13 25 -33 33 -45z
m339 27 c3 -5 19 -10 36 -10 27 0 29 -3 29 -36 0 -54 -15 -74 -55 -74 -36 0
-37 2 -37 45 0 62 3 85 11 85 6 0 13 -4 16 -10z m-422 -131 c9 -6 -81 -96
-192 -192 -36 -31 -68 -63 -73 -71 -5 -9 -19 -21 -30 -27 -18 -10 -16 -5 9 27
17 21 41 49 52 61 12 12 21 25 21 28 0 3 39 55 86 116 86 110 86 110 102 87 9
-13 20 -26 25 -29z m160 -28 l17 -29 -41 -16 c-23 -9 -42 -16 -43 -14 0 2 -11
17 -24 35 -12 18 -22 35 -22 37 0 3 12 19 28 36 l27 30 20 -25 c11 -14 28 -38
38 -54z m329 -26 l-4 -55 -44 -11 c-24 -6 -47 -10 -51 -8 -4 2 -9 27 -11 55
l-3 52 38 10 c76 20 78 19 75 -43z m-430 -16 l27 -36 -87 -37 c-91 -39 -265
-137 -257 -144 4 -4 223 100 319 150 16 9 24 5 43 -18 13 -16 23 -32 23 -35 0
-3 -60 -23 -132 -43 -73 -21 -142 -41 -153 -44 -11 -3 -22 -7 -25 -7 -3 -1
-12 -4 -20 -7 -8 -4 -28 -11 -45 -16 -16 -6 -39 -14 -50 -18 -27 -11 43 59
130 128 39 31 97 84 130 117 32 34 62 57 65 53 3 -4 18 -23 32 -43z m298 -9
c0 -22 -1 -43 -1 -47 -1 -5 -19 -13 -40 -20 l-39 -11 -19 39 c-21 43 -20 45
43 65 57 18 56 18 56 -26z m-126 -36 c14 -26 26 -50 26 -54 0 -6 -75 -30 -93
-30 -7 0 -56 66 -59 80 -2 7 19 20 47 30 28 10 51 19 52 19 1 1 13 -20 27 -45z
m241 -86 c-2 -35 -5 -139 -6 -233 0 -125 -3 -163 -11 -145 -5 14 -11 48 -12
75 -2 28 -8 77 -14 110 -6 33 -13 84 -16 113 -3 29 -9 70 -12 91 -6 36 -4 40
17 44 60 11 60 12 54 -55z m-86 -50 c7 -57 19 -134 27 -173 9 -38 17 -89 20
-113 2 -24 7 -49 10 -55 20 -34 -15 11 -41 53 -16 27 -72 110 -123 184 -51 74
-89 137 -85 139 5 3 22 7 38 11 29 6 31 3 62 -62 35 -74 80 -174 109 -241 10
-24 20 -39 21 -34 6 16 -46 151 -98 257 -27 55 -49 102 -49 106 0 6 59 26 86
29 7 1 16 -40 23 -101z"/>
<path d="M1172 898 c2 -37 2 -68 1 -68 -2 0 -12 9 -23 20 -29 29 -94 27 -125
-4 -55 -55 -53 -161 6 -210 37 -31 77 -33 113 -5 21 17 26 18 26 5 0 -12 10
-16 40 -16 l40 0 0 173 0 172 -41 1 -40 0 3 -68z m48 -109 c0 -128 -1 -140
-17 -137 -12 2 -17 11 -15 23 2 11 6 35 9 52 3 18 0 46 -5 63 -7 18 -7 32 -1
35 5 4 9 28 9 56 0 27 5 49 10 49 6 0 10 -54 10 -141z m-159 25 c-28 -36 -27
-96 1 -142 22 -35 13 -37 -24 -4 -27 23 -25 125 2 152 29 29 45 24 21 -6z m99
-23 c15 -29 12 -87 -6 -105 -21 -22 -61 -20 -74 3 -14 27 -13 94 2 109 19 19
66 15 78 -7z"/>
<path d="M1910 793 l0 -173 40 0 40 0 0 53 1 52 48 -52 c45 -50 50 -53 97 -53
l49 0 -66 66 -67 67 62 58 61 58 -45 1 c-40 0 -49 -5 -92 -47 l-48 -47 0 94 0
95 -40 0 -40 1 0 -173z m69 -27 c12 -14 15 -14 36 0 22 14 23 14 19 -3 -3 -11
9 -34 31 -61 20 -23 34 -42 30 -42 -3 0 -19 16 -36 35 -54 61 -99 53 -99 -17
0 -15 -5 -28 -10 -28 -12 0 -13 242 -1 269 3 9 8 -18 11 -60 3 -43 12 -84 19
-93z"/>
<path d="M2520 905 c0 -28 -4 -35 -20 -35 -16 0 -20 -7 -20 -31 0 -26 3 -31
20 -26 19 5 20 0 20 -69 0 -66 3 -78 25 -99 20 -20 34 -25 78 -25 53 0 54 0
54 29 0 27 -4 30 -36 33 l-36 3 -3 65 -3 66 41 -4 c39 -4 40 -3 40 27 0 30 -2
31 -40 31 -39 0 -40 1 -40 35 0 34 -1 35 -40 35 -39 0 -40 -1 -40 -35z m50
-14 c0 -10 7 -24 15 -31 13 -11 13 -15 0 -33 -20 -29 -20 -126 1 -155 17 -24
13 -27 -17 -12 -16 9 -19 22 -19 80 0 50 -4 73 -16 85 -15 15 -15 17 0 34 9
10 16 25 16 34 0 9 5 17 10 17 6 0 10 -8 10 -19z"/>
<path d="M1002 910 c0 -14 2 -19 5 -12 2 6 2 18 0 25 -3 6 -5 1 -5 -13z"/>
<path d="M1390 867 c-96 -33 -108 -186 -18 -233 22 -12 48 -15 91 -12 52 4 64
9 88 36 24 27 29 41 29 86 0 66 -31 110 -88 126 -46 12 -58 12 -102 -3z m-4
-52 c-25 -37 -23 -100 3 -135 26 -36 10 -40 -24 -5 -19 18 -25 35 -25 70 0 35
6 52 25 70 31 32 42 32 21 0z m141 3 c31 -29 33 -108 2 -139 -29 -29 -32 -20
-10 25 21 40 15 82 -17 119 -22 24 -3 21 25 -5z m-45 -15 c49 -44 -4 -161 -58
-125 -34 22 -41 94 -13 129 16 18 49 16 71 -4z"/>
<path d="M1714 869 c-71 -21 -110 -102 -81 -170 24 -57 50 -73 128 -77 73 -4
71 -6 83 50 6 26 6 26 -24 11 -36 -18 -86 -9 -100 17 -6 10 -10 35 -10 54 0
57 55 81 121 52 12 -5 14 0 11 28 -3 30 -8 34 -40 40 -44 7 -48 7 -88 -5z
m-14 -61 c-28 -46 -26 -90 6 -127 30 -36 17 -41 -20 -8 -45 39 -43 119 3 154
28 21 31 14 11 -19z"/>
<path d="M2255 861 c-80 -36 -96 -149 -30 -211 29 -27 115 -38 175 -23 30 8
35 14 38 41 l3 31 -35 -14 c-38 -16 -94 -20 -112 -7 -6 4 -17 17 -23 30 l-12
23 96 -3 97 -3 -5 43 c-5 49 -28 79 -74 98 -43 18 -70 17 -118 -5z m-5 -57
c-7 -19 -7 -31 1 -40 9 -11 8 -18 -1 -29 -10 -12 -10 -21 -2 -40 13 -28 2 -34
-18 -10 -25 30 -16 119 13 137 17 11 17 11 7 -18z m118 -18 c3 -13 -6 -16 -48
-16 -43 0 -51 3 -48 17 5 28 49 45 73 29 11 -7 21 -21 23 -30z m52 -12 c0 -8
-7 -14 -16 -14 -11 0 -15 6 -11 20 3 11 1 23 -4 26 -5 3 -9 11 -9 17 1 17 40
-32 40 -49z"/>
<path d="M2700 866 c0 -3 25 -61 55 -130 30 -69 52 -132 49 -141 -4 -9 -18
-15 -35 -15 -26 0 -29 -3 -29 -31 0 -31 0 -32 42 -26 24 3 50 15 63 29 13 13
46 84 75 158 28 74 54 141 57 148 4 8 -7 12 -35 12 l-40 0 -29 -86 -29 -87
-33 87 -34 86 -38 0 c-22 0 -39 -2 -39 -4z m85 -97 c22 -52 49 -89 63 -89 5 0
15 11 22 25 7 14 17 25 21 25 11 0 -49 -143 -66 -158 -10 -8 -12 -8 -5 0 18
22 11 59 -30 150 -38 86 -49 120 -33 104 4 -4 17 -30 28 -57z m136 28 c-6 -6
-11 -19 -11 -28 0 -10 -4 -20 -9 -23 -10 -7 2 54 15 75 6 10 8 11 12 0 2 -7
-1 -18 -7 -24z"/>
</g>
</svg>
